<svg id="Layer_1" data-name="Layer 1" xmlns="http://www.w3.org/2000/svg" viewBox="0 0 361.7 334"><defs><style>.cls-1{fill:#fff;}</style></defs><title>compress</title><path class="cls-1" d="M150,164.08c-9.41,0-17.27,7.67-19.23,15.59h-6.16V170.1c0-3.62-3.17-6.64-6.33-7.52V125.85h9.82c4.32,0,7.6-4.58,7.6-8.89V96.46c0-4.31-3.28-7-7.6-7h-3.65c-.2,0-.47-1.91-.84-2.65a11,11,0,0,0-14.89-4.67l-14,7.31H68.23s-.06-.39-.1-.39A7.8,7.8,0,0,0,66.71,89a7.39,7.39,0,0,0-.87.16c-.19.06-.39.05-.58.13a7.75,7.75,0,0,0-1.09.55c-.08,0-.17.07-.25.12-.46.31-.89,1.22-1.28,1.62L40,114.77H-98.49c-.48-3.17-3.23-6.33-6.57-6.33h-51.14c-3.69,0-7.31,2.51-7.31,6.19v28.2c0,4.31,4.13,8.34,8.45,8.34H54.22c.34,0,.66-.32,1-.37.16,0,.32-.15.48-.18a7.17,7.17,0,0,0,4.24-1.89l23.37-22.89H85v36.73c-3.17.88-4.75,3.9-4.75,7.52v9.57H74.12c-2-7.91-9.82-15.59-19.23-15.59a19.65,19.65,0,0,0-19.72,19.63c0,10.89,8.83,20.17,19.72,20.17A20.53,20.53,0,0,0,73,192.34h7.24V197a8.37,8.37,0,0,0,8.26,8h28.66c4.31,0,7.4-3.68,7.4-8v-4.67h7.25A20.49,20.49,0,0,0,150,203.84a19.88,19.88,0,0,0,0-39.76Z" transform="translate(192 129)"/><path class="cls-1" d="M123.58-41a11.08,11.08,0,0,0-14.89-4.86L87.91-35.31a11.08,11.08,0,0,0-4.86,14.89,11.07,11.07,0,0,0,14.89,4.86L118.71-26.1A11.08,11.08,0,0,0,123.58-41Z" transform="translate(192 129)"/><path class="cls-1" d="M123.58-9.14A11.08,11.08,0,0,0,108.69-14L87.91-3.46a11.07,11.07,0,0,0,10,19.75L118.71,5.75A11.08,11.08,0,0,0,123.58-9.14Z" transform="translate(192 129)"/><path class="cls-1" d="M123.58,22.71a11.08,11.08,0,0,0-14.89-4.86L87.91,28.38a11.07,11.07,0,0,0,10,19.75L118.71,37.6A11.09,11.09,0,0,0,123.58,22.71Z" transform="translate(192 129)"/><path class="cls-1" d="M108.69,49.69,87.91,60.23A11.07,11.07,0,0,0,97.94,80l20.77-10.54a11.07,11.07,0,1,0-10-19.75Z" transform="translate(192 129)"/><path class="cls-1" d="M-156.19-86.26h51.14c3.34,0,6.08-1.58,6.57-4.75H40L62.65-68.67c1.17,1.06,3.37,1.4,5.58,1.4H88.35l-.44.17a11,11,0,0,0-4.86,14.86,11.07,11.07,0,0,0,14.89,4.85l20.77-10.49c3.7-1.88,5.89-4.63,6.05-9.38h3.31a7.73,7.73,0,0,0,7.6-7.92v-20.5c0-4.31-3.28-6.4-7.6-6.4h-9.82v-8c0-4.31-2.59-7.79-6.9-7.79h-17c-4.32,0-9.34,3.48-9.34,7.79v8H83.29L59.92-126.16a8.33,8.33,0,0,0-4.23-2.71c-.24,0-.49,0-.74-.06s-.48-.06-.73-.06H-155.05c-4.32,0-8.45,3.12-8.45,7.44v28.2C-163.51-89.68-159.88-86.26-156.19-86.26Z" transform="translate(192 129)"/><path class="cls-1" d="M-183.3,95.07c-4.8,0-8.7-3.16-8.7-7.06V-67.33c0-3.9,3.89-7.06,8.7-7.06H42.84c4.8,0,8.7,3.16,8.7,7.06s-3.89,7.06-8.7,7.06H-174.6V88C-174.6,91.91-178.5,95.07-183.3,95.07Z" transform="translate(192 129)"/><path class="cls-1" d="M44.64,97.08H-182c-4.81,0-8.72-3.17-8.72-7.08s3.9-7.08,8.72-7.08h218V-65.69c0-3.91,3.9-7.08,8.72-7.08s8.72,3.17,8.72,7.08V90C53.35,93.92,49.45,97.08,44.64,97.08Z" transform="translate(192 129)"/><path class="cls-1" d="M-181.44,71.36c-5.83,0-10.55-3.86-10.54-8.59a8,8,0,0,1,3.67-6.48l73.93-51.44A12.41,12.41,0,0,1-100,5.3L-68.34,31c4.05,3.41,3.94,8.83-.26,12.12a12.39,12.39,0,0,1-14.67,0L-108.06,23l-66.5,46.3A12.12,12.12,0,0,1-181.44,71.36Z" transform="translate(192 129)"/><path class="cls-1" d="M-126.86,97.08c-5.44,0-9.85-3.58-9.85-8A7.15,7.15,0,0,1-134.42,84l98.51-96a10.8,10.8,0,0,1,7.13-2.88,11,11,0,0,1,7.41,2.33l69,56c3.78,3.18,3.67,8.24-.24,11.31a11.55,11.55,0,0,1-13.69,0L-27.7,5l-91.59,89.22A10.89,10.89,0,0,1-126.86,97.08Z" transform="translate(192 129)"/></svg>