<svg id="Layer_1" data-name="Layer 1" xmlns="http://www.w3.org/2000/svg" viewBox="0 0 148.85 130.35"><defs><style>.cls-1{fill:#fff;}</style></defs><title>img-resizer</title><path class="cls-1" d="M-98.75,7.5A4.25,4.25,0,0,1-103,3.25v-93.5a4.25,4.25,0,0,1,4.25-4.25H11.75A4.25,4.25,0,0,1,16-90.25,4.25,4.25,0,0,1,11.75-86H-94.5V3.25A4.25,4.25,0,0,1-98.75,7.5Z" transform="translate(126.55 116.56)"/><path class="cls-1" d="M-5.25-9.5h-110.5A4.25,4.25,0,0,1-120-13.75,4.25,4.25,0,0,1-115.75-18H-9.5v-89.25a4.25,4.25,0,0,1,4.25-4.25A4.25,4.25,0,0,1-1-107.25v93.5A4.25,4.25,0,0,1-5.25-9.5Z" transform="translate(126.55 116.56)"/><path class="cls-1" d="M-98.75-22.25A4.25,4.25,0,0,1-103-26.51a4.25,4.25,0,0,1,1.48-3.21l29.75-25.5A4.25,4.25,0,0,1-66-55l12.75,12.75a4.25,4.25,0,0,1-.1,6,4.25,4.25,0,0,1-5.9,0l-10-10L-96-23.26A4.25,4.25,0,0,1-98.75-22.25Z" transform="translate(126.55 116.56)"/><path class="cls-1" d="M-77.5-9.5a4.25,4.25,0,0,1-4.25-4.25,4.25,4.25,0,0,1,1-2.72l42.5-51A4.25,4.25,0,0,1-35.19-69,4.17,4.17,0,0,1-32-67.76L-2.24-38a4.25,4.25,0,0,1-.1,6,4.25,4.25,0,0,1-5.9,0L-34.72-58.45-74.24-11A4.25,4.25,0,0,1-77.5-9.5Z" transform="translate(126.55 116.56)"/><polygon class="cls-1" points="121.17 0 112.31 15.35 130.04 15.35 121.17 0"/><polygon class="cls-1" points="0 102.92 15.35 111.79 15.35 94.06 0 102.92"/><polygon class="cls-1" points="27.68 130.35 18.81 115 36.54 115 27.68 130.35"/><polygon class="cls-1" points="148.85 26.68 133.5 17.81 133.5 35.54 148.85 26.68"/></svg>