<svg id="Layer_1" data-name="Layer 1" xmlns="http://www.w3.org/2000/svg" viewBox="0 0 98.73 69"><defs><style>.cls-1{fill:#fff;}</style></defs><title>lazyload</title><path class="cls-1" d="M-99.5-10.31c-1.93,0-3.5-1.27-3.5-2.84V-75.66c0-1.57,1.57-2.84,3.5-2.84h91c1.93,0,3.5,1.27,3.5,2.84s-1.57,2.84-3.5,2.84H-96v59.66C-96-11.58-97.57-10.31-99.5-10.31Z" transform="translate(103 78.5)"/><path class="cls-1" d="M-7.78-9.5H-99c-1.94,0-3.51-1.28-3.51-2.85s1.57-2.85,3.51-2.85h87.7V-75c0-1.57,1.57-2.85,3.51-2.85S-4.27-76.57-4.27-75v62.65C-4.27-10.78-5.84-9.5-7.78-9.5Z" transform="translate(103 78.5)"/><path class="cls-1" d="M-35.81-48.88a12.45,12.45,0,0,0,.41,1.29c0,.13.05.28.08.42l.19-.08c0-.07,0-.16-.06-.23a12.47,12.47,0,0,0-.41-1.29c-.15-.46-.36-.83-.52-1.19a5.89,5.89,0,0,0-.52-1c.15.26.26.57.41.88S-35.91-49.29-35.81-48.88Z" transform="translate(103 78.5)"/><path class="cls-1" d="M-34.93-42h.18a1,1,0,0,1,.4.08,18.92,18.92,0,0,0-.31-3.34l-.33.13A17.54,17.54,0,0,1-34.93-42Z" transform="translate(103 78.5)"/><path class="cls-1" d="M-35.14-36.62a18.63,18.63,0,0,0,.69-3.44,1,1,0,0,1-.31.06h-.44a18.45,18.45,0,0,1-.91,3.2Z" transform="translate(103 78.5)"/><path class="cls-1" d="M-54.82-26c-.72-.05-1.45-.31-2.12-.41a18.22,18.22,0,0,1-2-.77c-.62-.31-1.24-.62-1.91-1-.13-.07-.26-.14-.39-.22v3.15a10.42,10.42,0,0,0,1.16.48,21.21,21.21,0,0,0,2.38.77,18.31,18.31,0,0,0,2.43.41,19.08,19.08,0,0,0,2.43.1c.26,0,.52,0,.77,0-.59-.76-1.17-1.52-1.7-2.32A5.11,5.11,0,0,1-54.82-26Z" transform="translate(103 78.5)"/><path class="cls-1" d="M-52.6-63.34h-.15a.75.75,0,0,1-.31.05,7,7,0,0,0-.93.05,17.73,17.73,0,0,0-3.56.62,20.33,20.33,0,0,0-5.11,2.12,18.38,18.38,0,0,0-2.79,2,10,10,0,0,0-1.29,1.24l-.31.31c-.1.1-.26.21-.31.36a9.23,9.23,0,0,0-.67.72,21,21,0,0,0-3.87,7.39l-.15.52-.1.57c-.05.36-.15.72-.21,1.08A16.84,16.84,0,0,0-72.64-44a17.46,17.46,0,0,0,.05,2.32,20,20,0,0,0,.31,2.38c.05.36.15.77.21,1.19s.26.77.36,1.19a14.83,14.83,0,0,0,.88,2.27,10.92,10.92,0,0,0,.57,1.08c.21.41.41.72.62,1.08s.46.72.72,1,.46.67.77,1a11.61,11.61,0,0,0,1.7,1.81l.88.83.05.05.05.05.05.05h.1l.26.21.52.36c.21.1.31.26.52.36l.57.31.19.11v-2.9a.92.92,0,0,1,.18-.55l-1.1-1.1a9.65,9.65,0,0,1-1.39-1.6,6.48,6.48,0,0,1-.57-.88l-.57-.88-.46-.93c-.1-.26-.31-.62-.41-.93A11.8,11.8,0,0,1-68.2-38a5.44,5.44,0,0,1-.26-1l-.15-.93a11.39,11.39,0,0,1-.21-1.91,11.81,11.81,0,0,1,.05-1.91c.1-.62.15-1.24.31-1.81.05-.31.15-.57.21-.88l.05-.41.15-.41A16.74,16.74,0,0,1-64.68-53c.41-.41.72-.77,1.08-1.08A5.63,5.63,0,0,1-62.46-55a13.54,13.54,0,0,1,2.22-1.45,15.69,15.69,0,0,1,4-1.45,9.62,9.62,0,0,1,2.69-.31,3.3,3.3,0,0,1,.72,0h.26A2.56,2.56,0,0,0-50-60.76,2.56,2.56,0,0,0-52.6-63.34Z" transform="translate(103 78.5)"/><path class="cls-1" d="M-46.21-26.84l0,0a13,13,0,0,1-4.18.93l-.88.08c.51.68,1,1.35,1.56,2a20.35,20.35,0,0,0,3.93-1.13c.41-.15.72-.31,1.08-.46a6,6,0,0,0,.7-.37C-44.78-26.08-45.5-26.44-46.21-26.84Z" transform="translate(103 78.5)"/><path class="cls-1" d="M-40.62-30.21a16.32,16.32,0,0,1-2,1.53c-.43.27-.86.58-1.32.82.46.23.93.45,1.41.65a1.38,1.38,0,0,1,.36.22l.32-.24c.26-.21.52-.46.83-.67l.41-.31.1-.1.05-.05v.05l.26-.26.77-.77.41-.41.08-.09Z" transform="translate(103 78.5)"/><path class="cls-1" d="M-37.5-31.62l.19-.27.57-.88c.15-.36.31-.62.46-.93s.3-.69.45-1l-1.1-.21c-.08.15-.14.31-.23.46A17.39,17.39,0,0,1-39-31.91Z" transform="translate(103 78.5)"/></svg>