<svg xmlns="http://www.w3.org/2000/svg" viewBox="0 0 16 20" x="0px" y="0px"><title>crop image</title><g><path d="M2.5,15a.5.5,0,0,1-.5-.5V3.5A.5.5,0,0,1,2.5,3h13a.5.5,0,0,1,0,1H3V14.5A.5.5,0,0,1,2.5,15Z"/><path d="M13.5,13H.5a.5.5,0,0,1,0-1H13V1.5a.5.5,0,0,1,1,0v11A.5.5,0,0,1,13.5,13Z"/><path d="M2.5,11.5a.5.5,0,0,1-.325-.879l3.5-3a.5.5,0,0,1,.679.026l1.5,1.5a.5.5,0,0,1-.707.707L5.974,8.681l-3.148,2.7A.5.5,0,0,1,2.5,11.5Z"/><path d="M5,13a.5.5,0,0,1-.384-.82l5-6A.5.5,0,0,1,9.978,6a.491.491,0,0,1,.376.146l3.5,3.5a.5.5,0,0,1-.707.707L10.033,7.241,5.384,12.82A.5.5,0,0,1,5,13Z"/></g><text x="0" y="31" fill="#000000" font-size="5px" font-weight="bold" font-family="'Helvetica Neue', Helvetica, Arial-Unicode, Arial, Sans-serif">Created by icon 54</text><text x="0" y="36" fill="#000000" font-size="5px" font-weight="bold" font-family="'Helvetica Neue', Helvetica, Arial-Unicode, Arial, Sans-serif">from the Noun Project</text></svg>