<svg id="Layer_1" data-name="Layer 1" xmlns="http://www.w3.org/2000/svg" viewBox="0 0 437.7 346.09"><defs><style>.cls-1,.cls-2{fill:#fff;}.cls-1{stroke:#fff;stroke-miterlimit:10;stroke-width:6px;}.cls-3{fill:none;}</style></defs><title>setup</title><path class="cls-1" d="M25.25-332.11H-222.66v165.68H25.25ZM-187.2-177.85l41.88-65.3,36.24,56.5,21.34-33.28,27,42.08H-187.2Zm201.53.51H-47.46l-40.29-62.82-21.34,33.28-36.24-56.5-55.17,86h-11.25V-321.19H14.33Z" transform="translate(308 370.28)"/><path class="cls-1" d="M-37.68-237A28.62,28.62,0,0,0-9.09-265.61a28.62,28.62,0,0,0-28.59-28.59,28.62,28.62,0,0,0-28.59,28.59A28.62,28.62,0,0,0-37.68-237Zm0-46.26A17.69,17.69,0,0,1-20-265.61a17.69,17.69,0,0,1-17.67,17.67,17.69,17.69,0,0,1-17.67-17.67A17.69,17.69,0,0,1-37.68-283.28Z" transform="translate(308 370.28)"/><path class="cls-1" d="M124-85.26,108.1-94.43a54,54,0,0,0,.33-5.89c0-1.51-.07-3-.19-4.52L124-113.91a5.46,5.46,0,0,0,2.54-3.32,5.47,5.47,0,0,0-.55-4.14L109.33-150.2a5.44,5.44,0,0,0-3.31-2.54,5.43,5.43,0,0,0-4.15.55l-15.24,8.8A53,53,0,0,0,77.06-149v-17.5A5.46,5.46,0,0,0,71.6-172H60.88V-349a18.3,18.3,0,0,0-18.29-18.28h-282.3A18.31,18.31,0,0,0-258-349v248.09a18.31,18.31,0,0,0,18.29,18.29H-16.36a5.43,5.43,0,0,0,.3,4.82L.58-49A5.42,5.42,0,0,0,3.9-46.44,5.48,5.48,0,0,0,8-47L24.4-56.43a53.51,53.51,0,0,0,8.44,4.82v19a5.46,5.46,0,0,0,5.46,5.46H71.59a5.46,5.46,0,0,0,5.46-5.46v-19a53.74,53.74,0,0,0,8.45-4.82L101.86-47a5.48,5.48,0,0,0,4.15.55A5.45,5.45,0,0,0,109.32-49L126-77.8a5.47,5.47,0,0,0,.55-4.14A5.45,5.45,0,0,0,124-85.26Zm-363.68-8.28a7.38,7.38,0,0,1-7.37-7.37V-349a7.38,7.38,0,0,1,7.37-7.36H42.59A7.37,7.37,0,0,1,50-349v177H38.31a5.46,5.46,0,0,0-5.46,5.46V-149a53.15,53.15,0,0,0-9.57,5.63L8-152.19a5.46,5.46,0,0,0-7.46,2l-16.64,28.82a5.44,5.44,0,0,0-.55,4.14,5.46,5.46,0,0,0,2.54,3.32l15.73,9.08c-.13,1.5-.19,3-.19,4.52a54.16,54.16,0,0,0,.33,5.89l-1.53.88ZM102.6-59.17,87.84-67.69a5.46,5.46,0,0,0-6.16.48,42.43,42.43,0,0,1-12,6.83,5.45,5.45,0,0,0-3.56,5.12v17.15H43.77V-55.26a5.45,5.45,0,0,0-3.56-5.12,42.63,42.63,0,0,1-12-6.83,5.47,5.47,0,0,0-6.16-.48L7.31-59.17-3.87-78.54l14.35-8.29a5.44,5.44,0,0,0,2.64-5.72,42.74,42.74,0,0,1-.72-7.77,42.39,42.39,0,0,1,.51-6.6,5.45,5.45,0,0,0-2.66-5.57l-14.12-8.15L7.31-140,21-132.07a5.47,5.47,0,0,0,6.29-.58,42.26,42.26,0,0,1,12.88-7.58,5.45,5.45,0,0,0,3.57-5.12v-15.7H66.14v15.7a5.46,5.46,0,0,0,3.57,5.12,42.38,42.38,0,0,1,12.89,7.58,5.46,5.46,0,0,0,6.28.58L102.6-140l11.19,19.37-14.13,8.15A5.47,5.47,0,0,0,97-106.92a42.47,42.47,0,0,1,.51,6.61,42.51,42.51,0,0,1-.72,7.77,5.46,5.46,0,0,0,2.64,5.72l14.36,8.29Z" transform="translate(308 370.28)"/><path class="cls-2" d="M55-85.11A14.5,14.5,0,0,1,40.48-99.58,14.5,14.5,0,0,1,55-114.06,14.49,14.49,0,0,1,69.43-99.58,14.49,14.49,0,0,1,55-85.11Z" transform="translate(308 370.28)"/><line class="cls-3" y1="94.28" x2="2" y2="100.28"/></svg>