<svg id="Layer_1" data-name="Layer 1" xmlns="http://www.w3.org/2000/svg" viewBox="0 0 433.06 297.89"><defs><style>.cls-1,.cls-4{fill:#fff;}.cls-2{fill:#fffdfe;}.cls-3{fill:#d73964;}.cls-4{font-size:33px;font-family:Arial-Black, Arial Black;letter-spacing:0.31em;}.cls-5{letter-spacing:0.29em;}.cls-6{letter-spacing:0.31em;}</style></defs><title>logo-white</title><path class="cls-1" d="M-252.6-164.4-181-36.27a12.5,12.5,0,0,1-.15,12.46L-251.87,96a12.5,12.5,0,0,0,10.77,18.86H165.83a12.5,12.5,0,0,0,11-18.54L110.24-24.41a12.5,12.5,0,0,1-.12-11.84l67.29-128.45A12.5,12.5,0,0,0,166.33-183h-408A12.5,12.5,0,0,0-252.6-164.4ZM130.56,68.7a12.26,12.26,0,0,1,1.36,9.53,21,21,0,0,1-20.48,15.38H-186.44a21,21,0,0,1-20.47-15.33,12.23,12.23,0,0,1,1.41-9.62l55.36-91.49a12.5,12.5,0,0,0,.26-12.5L-205.82-137a12.38,12.38,0,0,1-1.16-9.17,21,21,0,0,1,20.53-15.57H111.44a21,21,0,0,1,20.44,15.26,12.19,12.19,0,0,1-1.49,9.75L72-43a12.5,12.5,0,0,0-.13,13Z" transform="translate(254.21 183)"/><path class="cls-2" d="M-88.44,20.24-110.12-1.23A12.5,12.5,0,0,0-128.73-.1l-42.57,53.88A12.5,12.5,0,0,0-161.48,74H91.3A12.5,12.5,0,0,0,102.51,56l-86-173.64A12.5,12.5,0,0,0-6-117.38l-62.32,134A12.5,12.5,0,0,1-88.44,20.24Z" transform="translate(254.21 183)"/><circle class="cls-1" cx="107.81" cy="63.83" r="31.07"/><rect class="cls-3" x="66.91" y="135.41" width="304.16" height="34.59"/><text class="cls-4" transform="translate(102.21 165)">SLIM<tspan class="cls-5" x="130.75" y="0">A</tspan><tspan class="cls-6" x="166.05" y="0">GE</tspan></text></svg>